<?xml version="1.0" encoding="UTF-8" standalone="no"?> <svg height="637pt" viewBox="-190 -20 637 637.33331" width="637pt" xmlns="http://www.w3.org/2000/svg"><path d="m-11.179688 477.945312c0 6.207032 5.035157 11.242188 11.242188 11.242188h16.992188l8.121093 97.996094c.484375 5.832031 5.355469 10.316406 11.207031 10.316406h81.171876c5.867187 0 10.746093-4.507812 11.210937-10.359375l7.722656-97.953125h16.949219c6.214844 0 11.246094-5.035156 11.246094-11.242188v-40.050781c-.0625-34.484375-28.027344-62.402343-62.511719-62.417969h-50.84375c-34.480469.015626-62.445313 27.933594-62.507813 62.417969zm22.488282-40.042968c.046875-22.070313 17.953125-39.9375 40.019531-39.9375h50.84375c22.0625 0 39.96875 17.863281 40.023437 39.929687v28.800781h-16.101562c-5.871094 0-10.75 4.507813-11.207031 10.359376l-7.730469 97.949218h-60.429688l-8.121093-98.003906c-.480469-5.824219-5.355469-10.308594-11.203125-10.308594h-16.09375zm0 0"/><path d="m26.839844 315.503906c-.035156 27.453125 22.195312 49.738282 49.652344 49.765625 27.457031.023438 49.730468-22.222656 49.738281-49.679687.015625-27.449219-22.238281-49.714844-49.695313-49.714844-27.410156.011719-49.640625 22.210938-49.695312 49.628906zm49.695312-27.140625c14.984375.039063 27.097656 12.207031 27.070313 27.183594-.023438 14.976563-12.179688 27.105469-27.15625 27.097656-14.984375-.015625-27.121094-12.164062-27.121094-27.140625.039063-15 12.210937-27.144531 27.207031-27.140625zm0 0"/><path d="m17.027344 178.65625c-6.214844 0-11.246094 5.035156-11.246094 11.246094v16.238281c0 6.210937 5.03125 11.246094 11.246094 11.246094 6.207031 0 11.242187-5.035157 11.242187-11.246094v-16.238281c0-6.210938-5.035156-11.246094-11.242187-11.246094zm0 0"/><path d="m73.246094 179.90625v-16.242188c0-6.207031-5.035156-11.242187-11.242188-11.242187-6.214844 0-11.246094 5.035156-11.246094 11.242187v16.242188c0 6.207031 5.03125 11.242188 11.246094 11.242188 6.207032 0 11.242188-5.035157 11.242188-11.242188zm0 0"/><path d="m138.214844 198.644531v-17.488281c0-6.207031-5.039063-11.246094-11.246094-11.246094-6.210938 0-11.242188 5.039063-11.242188 11.246094v17.488281c0 6.210938 5.03125 11.246094 11.242188 11.246094 6.207031 0 11.246094-5.035156 11.246094-11.246094zm0 0"/><path d="m101.980469 236.125v-17.488281c0-6.207031-5.035157-11.246094-11.242188-11.246094-6.214843 0-11.246093 5.039063-11.246093 11.246094v17.488281c0 6.210938 5.03125 11.246094 11.246093 11.246094 6.207031 0 11.242188-5.035156 11.242188-11.246094zm0 0"/><path d="m234.414062 93.699219c6.207032 0 11.242188-5.035157 11.242188-11.242188v-71.214843c0-6.207032-5.035156-11.242188-11.242188-11.242188-6.214843 0-11.246093 5.035156-11.246093 11.242188v12.367187h-108.203125c-26.03125 0-47.214844 21.792969-47.214844 48.570313v1.078124h-18.792969c-26.429687.027344-47.855469 21.449219-47.882812 47.886719v9.183594c0 6.207031 5.035156 11.242187 11.242187 11.242187h133.355469c6.207031 0 11.242187-5.035156 11.242187-11.242187v-9.183594c-.035156-26.433593-21.453124-47.851562-47.886718-47.882812h-18.792969v-1.078125c0-14.375 11.09375-26.078125 24.730469-26.078125h108.203125v36.351562c0 6.207031 5.03125 11.242188 11.246093 11.242188zm-100.074218 25.390625h-110.691406c1.089843-13.179688 12.089843-23.324219 25.308593-23.339844h60.070313c13.222656.019531 24.222656 10.160156 25.3125 23.339844zm0 0"/></svg>