<?xml version="1.0" encoding="UTF-8" standalone="no"?> <svg xmlns="http://www.w3.org/2000/svg" width="512" height="512" viewBox="0 0 512 512">
  
  <g>
    <g>
      <polygon points="167 472 143 472 111 392 135 392 167 472" fill="#000000"/>
      <polygon points="112 392 80 472 56 472 88 392 112 392" fill="#000000"/>
      <polygon points="400 392 368 472 344 472 376 392 400 392" fill="#000000"/>
      <polygon points="455 472 431 472 399 392 423 392 455 472" fill="#000000"/>
      <rect x="184" y="336" width="144" height="24" fill="#000000"/>
      <path d="M248,440h16a32,32,0,0,1,32,32v0a0,0,0,0,1,0,0H216a0,0,0,0,1,0,0v0A32,32,0,0,1,248,440Z" fill="#000000"/>
      <path d="M464,160H376c0-53.02-53.72-96-120-96C370.88,64,464,106.98,464,160Z" fill="#000000"/>
      <path d="M256,64v96H136C136,106.98,189.72,64,256,64Z" fill="#000000"/>
      <rect x="240" y="40" width="32" height="24" fill="#000000"/>
    </g>
    <g>
      <path d="M496,464h-8a8,8,0,0,0,0,16h8a8,8,0,0,0,0-16Z" fill="#000000"/>
      <path d="M464,464h-3.58l-26.27-65.66A32.056,32.056,0,0,0,456,368V296a8,8,0,0,0-8-8A104.112,104.112,0,0,0,344,392a8,8,0,0,0,8,8h12.18l-25.6,64H303.2A40.069,40.069,0,0,0,264,432V368h64a8,8,0,0,0,8-8V336a8,8,0,0,0-8-8H264V168H464a7.989,7.989,0,0,0,8-8c0-28.94-23.29-55.63-65.57-75.15C371.86,68.9,327.65,59.1,280,56.63V40a8,8,0,0,0-8-8H240a8,8,0,0,0-8,8V56.63C184.35,59.1,140.14,68.9,105.57,84.85,63.29,104.37,40,131.06,40,160a7.989,7.989,0,0,0,8,8H248V328H184a8,8,0,0,0-8,8v24a8,8,0,0,0,8,8h64v64a40.069,40.069,0,0,0-39.2,32H172.42l-25.6-64H160a8,8,0,0,0,8-8A104.112,104.112,0,0,0,64,288a8,8,0,0,0-8,8v72a32.046,32.046,0,0,0,20.97,30.04L50.58,464H16a8,8,0,0,0,0,16H464a8,8,0,0,0,0-16ZM72,368V304.36A88.141,88.141,0,0,1,151.64,384H88A16.021,16.021,0,0,1,72,368Zm2.58,96H67.82l25.6-64h6.76Zm17.24,0,19.68-49.21L131.18,464Zm56.6,0-25.6-64h6.76l25.6,64ZM399.73,99.38c31.42,14.51,51.07,33.33,55.38,52.62H383.62c-2.73-29.03-20.19-54.77-46.31-72.26C360.34,84.35,381.49,90.96,399.73,99.38ZM367.54,152H264V72.22C318.67,75.27,362.62,109.28,367.54,152ZM248,48h16v8H248ZM128.38,152H56.89c4.31-19.29,23.96-38.11,55.38-52.62,18.24-8.42,39.39-15.03,62.42-19.64C148.57,97.23,131.11,122.97,128.38,152Zm16.08,0c4.92-42.72,48.87-76.73,103.54-79.78V152ZM192,352v-8H320v8Zm33.37,112A24.044,24.044,0,0,1,248,448h16a24.044,24.044,0,0,1,22.63,16Zm134.99-80A88.141,88.141,0,0,1,440,304.36V368a16.021,16.021,0,0,1-16,16Zm2.22,80h-6.76l25.6-64h6.76Zm17.24,0,19.68-49.21L419.18,464Zm56.6,0-25.6-64h6.76l25.6,64Z" fill="#000000"/>
    </g>
  </g>
</svg>

